<?xml version="1.0" ?><svg width="512px" height="512px" viewBox="0 0 512 512" id="svg2793" style="fill-rule:evenodd;clip-rule:evenodd;stroke-linejoin:round;stroke-miterlimit:2;" version="1.1" xml:space="preserve" xmlns="http://www.w3.org/2000/svg" xmlns:cc="http://creativecommons.org/ns#" xmlns:dc="http://purl.org/dc/elements/1.1/" xmlns:rdf="http://www.w3.org/1999/02/22-rdf-syntax-ns#" xmlns:serif="http://www.serif.com/" xmlns:svg="http://www.w3.org/2000/svg"><defs id="defs2797"/><g id="_32-Person" style="display:inline" transform="translate(-1024,-6144)"><g id="g2083" transform="translate(1231.39,6277.58)"><path d="m 0,-54.957 c 0,-26.81 21.807,-48.62 48.612,-48.62 26.805,0 48.612,21.81 48.612,48.62 V -2.728 C 97.224,22.665 79.045,44.106 54,48.254 v 0.001 c -0.027,0.004 -0.055,0.009 -0.082,0.013 -2.796,0.462 -5.645,0.469 -8.433,0.026 l -0.13,-0.022 C 45.13,48.231 44.903,48.192 44.673,48.156 18.785,44.007 0,21.972 0,-4.247 Z m 40.024,132.751 0.719,0.123 c 2.953,0.469 5.922,0.703 8.888,0.703 3.083,0 6.164,-0.253 9.218,-0.76 0.025,-0.005 0.05,-0.008 0.075,-0.012 39.576,-6.567 68.3,-40.451 68.3,-80.576 v -52.229 c 0,-43.352 -35.266,-78.62 -78.612,-78.62 -43.347,0 -78.612,35.268 -78.612,78.62 v 50.71 c 0,19.742 7.055,38.887 19.866,53.907 12.811,15.02 30.602,25.008 50.158,28.134" id="path2081" style="fill-rule:nonzero"/></g><g id="g2087" transform="translate(1448.81,6400.54)"><path d="m 0,225.46 h -46.1 v -83.88 c 0,-8.284 -6.716,-15 -15,-15 -8.284,0 -15,6.716 -15,15 v 83.88 h -185.428 v -83.88 c 0,-8.284 -6.716,-15 -15,-15 -8.284,0 -15,6.716 -15,15 v 83.88 h -46.1 V 94.17 c 0,-27.608 16.086,-53.164 40.977,-65.105 12.403,-5.947 25.086,-10.982 37.961,-15.113 6.273,14.847 21.153,29.143 44.435,42.641 20.073,11.638 39.495,18.724 40.312,19.02 1.651,0.598 3.38,0.897 5.109,0.897 1.737,0 3.475,-0.302 5.132,-0.905 0.82,-0.299 20.321,-7.451 40.441,-19.184 23.102,-13.473 37.901,-27.721 44.212,-42.506 12.913,4.139 25.633,9.186 38.071,15.149 C -16.084,41.006 0,66.562 0,94.17 Z M -108.745,6.073 c -4.887,7.379 -15.145,15.948 -29.295,24.238 -12.067,7.07 -24.187,12.379 -30.807,15.089 -6.605,-2.69 -18.668,-7.95 -30.694,-14.955 -14.303,-8.331 -24.64,-16.948 -29.483,-24.343 39.699,-8.324 80.577,-8.333 120.279,-0.029 m 80.74,-4.058 C -71.682,-18.93 -120.373,-30 -168.813,-30 c -48.441,0 -97.133,11.07 -140.812,32.016 -35.236,16.903 -58.003,53.076 -58.003,92.154 v 146.29 c 0,8.284 6.716,15 15,15 H 15 c 8.284,0 15,-6.716 15,-15 V 94.17 C 30,55.091 7.232,18.918 -28.005,2.015" id="path2085" style="fill-rule:nonzero"/></g><g id="g2091" transform="matrix(-1,0,0,1,1232.31,6597.6)"><path d="m 0,-30 c 8.29,0 15,6.71 15,15 0,8.28 -6.71,15 -15,15 -8.28,0 -15,-6.72 -15,-15 0,-8.29 6.72,-15 15,-15" id="path2089" style="fill-rule:nonzero"/></g><g id="g2095" transform="matrix(-1,0,0,1,1232.31,6540.6)"><path d="m 0,-30 c 8.29,0 15,6.71 15,15 0,8.28 -6.71,15 -15,15 -8.28,0 -15,-6.72 -15,-15 0,-8.29 6.72,-15 15,-15" id="path2093" style="fill-rule:nonzero"/></g></g></svg>