<svg version="1.1" id="Uploaded to svgrepo.com" xmlns="http://www.w3.org/2000/svg" xmlns:xlink="http://www.w3.org/1999/xlink" x="0px" y="0px"
	 width="32px" height="32px" viewBox="0 0 32 32" style="enable-background:new 0 0 32 32;" xml:space="preserve">
<style type="text/css">
	.bentblocks_een{fill:#0B1719;}
	.st0{fill:#0B1719;}
</style>
<path class="bentblocks_een" d="M4,4v24h24V4H4z M6,10h5v4H6V10z M19,14h-6v-4h6V14z M19,16v4h-6v-4H19z M6,16h5v4H6V16z M6,26v-4h5
	v4H6z M13,26v-4h6v4H13z M26,26h-5v-4h5V26z M26,20h-5v-4h5V20z M26,14h-5v-4h5V14z M6,8V6h20v2H6z"/>
</svg>