<?xml version='1.0' encoding='iso-8859-1'?>
<svg version="1.1" xmlns="http://www.w3.org/2000/svg" viewBox="0 0 328.554 328.554" xmlns:xlink="http://www.w3.org/1999/xlink" enable-background="new 0 0 328.554 328.554">
  <g>
    <path d="m286.013,25.754h-34.502c-52.755-27.444-98.56-25.89-127.815-19.665-26.623,5.663-44.507,15.938-50.381,19.665h-30.774c-23.457,0-42.541,19.083-42.541,42.54v215.407c0,23.457 19.084,42.541 42.541,42.541h243.472c23.457,0 42.541-19.084 42.541-42.541v-215.407c-5.68434e-14-23.457-19.084-42.54-42.541-42.54zm-159.196-4.995c35.623-7.577 71.808-3.071 107.734,13.378l-71.922,46.661-72.726-47.183c8.041-4.071 20.664-9.399 36.914-12.856zm106.904,31.797l-29.067,71.268-29.066-33.553 58.133-37.715zm-84.05,37.715l-29.066,33.553-29.067-71.268 58.133,37.715zm-134.671,193.43v-215.407c0-15.186 12.355-27.54 27.541-27.54h27.983l40.804,100.047c0.985,2.415 3.153,4.145 5.726,4.568 0.407,0.067 0.814,0.1 1.22,0.1 2.155,0 4.231-0.931 5.668-2.589l32.835-37.902v206.264h-114.236c-15.186,0-27.541-12.355-27.541-27.541zm298.554,0c0,15.187-12.355,27.541-27.541,27.541h-114.236v-202.461l29.54,34.098c1.437,1.658 3.513,2.589 5.668,2.589 0.405,0 0.813-0.033 1.22-0.1 2.573-0.424 4.741-2.153 5.726-4.568l40.804-100.047h31.278c15.186,0 27.541,12.354 27.541,27.54v215.408z"/>
    <path d="m219.485,163.498h-25c-4.142,0-7.5,3.357-7.5,7.5s3.358,7.5 7.5,7.5h25c4.142,0 7.5-3.357 7.5-7.5s-3.358-7.5-7.5-7.5z"/>
    <path d="m219.485,203.632h-25c-4.142,0-7.5,3.357-7.5,7.5s3.358,7.5 7.5,7.5h25c4.142,0 7.5-3.357 7.5-7.5s-3.358-7.5-7.5-7.5z"/>
    <path d="m219.485,243.765h-25c-4.142,0-7.5,3.357-7.5,7.5s3.358,7.5 7.5,7.5h25c4.142,0 7.5-3.357 7.5-7.5s-3.358-7.5-7.5-7.5z"/>
    <path d="m219.485,283.9h-25c-4.142,0-7.5,3.357-7.5,7.5s3.358,7.5 7.5,7.5h25c4.142,0 7.5-3.357 7.5-7.5s-3.358-7.5-7.5-7.5z"/>
  </g>
</svg>
