<?xml version='1.0' encoding='iso-8859-1'?>
<!DOCTYPE svg PUBLIC '-//W3C//DTD SVG 1.1//EN' 'http://www.w3.org/Graphics/SVG/1.1/DTD/svg11.dtd'>
<svg version="1.1" xmlns="http://www.w3.org/2000/svg" viewBox="0 0 443.997 443.997" xmlns:xlink="http://www.w3.org/1999/xlink" enable-background="new 0 0 443.997 443.997">
  <g>
    <path d="m436.497,80.499h-428.997c-4.143,0-7.5,3.358-7.5,7.5v36c0,4.142 3.357,7.5 7.5,7.5h10.642v224.499c0,4.142 3.357,7.5 7.5,7.5h28.721c4.143,0 7.5-3.358 7.5-7.5v-167.054h320.279v167.054c0,4.142 3.357,7.5 7.5,7.5h28.721c4.143,0 7.5-3.358 7.5-7.5v-224.499h10.635c4.143,0 7.5-3.358 7.5-7.5v-36c-0.001-4.142-3.358-7.5-7.501-7.5zm-403.355,267.999v-216.999h13.718l.002,216.999h-13.72zm28.72-216.999h58.525v42.445h-58.525v-42.445zm73.526,42.445v-42.445h173.222v42.445h-173.222zm246.749,0h-58.527v-42.445h58.527v42.445zm28.725,174.554h-13.721v-216.999h13.721v216.999zm18.135-231.999h-413.997v-21h413.997v21z"/>
    <path d="m222.002,145.228c-1.98,0-3.91,0.8-5.311,2.19-1.39,1.4-2.189,3.33-2.189,5.3 0,1.98 0.8,3.91 2.189,5.31 1.4,1.39 3.33,2.19 5.311,2.19 1.97,0 3.899-0.8 5.3-2.19 1.4-1.4 2.2-3.33 2.2-5.31 0-1.97-0.8-3.9-2.2-5.3-1.401-1.39-3.33-2.19-5.3-2.19z"/>
  </g>
</svg>
